<mxfile host="app.diagrams.net" modified="2021-10-22T05:46:31.729Z" agent="5.0 (Macintosh; Intel Mac OS X 10_15_7) AppleWebKit/537.36 (KHTML, like Gecko) Chrome/94.0.4606.81 Safari/537.36" etag="VQthYNktDEUZiHv1hK07" version="15.5.8" type="github">
  <diagram name="Page-1" id="74e2e168-ea6b-b213-b513-2b3c1d86103e">
    <mxGraphModel dx="1129" dy="729" grid="1" gridSize="10" guides="1" tooltips="1" connect="1" arrows="1" fold="1" page="1" pageScale="1" pageWidth="1100" pageHeight="850" background="none" math="0" shadow="0">
      <root>
        <mxCell id="0" />
        <mxCell id="1" parent="0" />
        <mxCell id="77e6c97f196da883-1" value="消息中心" style="swimlane;html=1;childLayout=stackLayout;startSize=20;rounded=0;shadow=0;labelBackgroundColor=none;strokeWidth=1;fontFamily=Verdana;fontSize=8;align=center;" parent="1" vertex="1">
          <mxGeometry x="90" y="60" width="1160" height="950" as="geometry" />
        </mxCell>
        <mxCell id="77e6c97f196da883-2" value="业务系统" style="swimlane;html=1;startSize=20;" parent="77e6c97f196da883-1" vertex="1">
          <mxGeometry y="20" width="140" height="930" as="geometry" />
        </mxCell>
        <mxCell id="77e6c97f196da883-8" value="后端服务" style="rounded=1;whiteSpace=wrap;html=1;shadow=0;labelBackgroundColor=none;strokeWidth=1;fontFamily=Verdana;fontSize=8;align=center;" parent="77e6c97f196da883-2" vertex="1">
          <mxGeometry x="30" y="70" width="100" height="60" as="geometry" />
        </mxCell>
        <mxCell id="77e6c97f196da883-3" value="消息推送" style="swimlane;html=1;startSize=20;" parent="77e6c97f196da883-1" vertex="1">
          <mxGeometry x="140" y="20" width="210" height="930" as="geometry" />
        </mxCell>
        <mxCell id="cL0mIKkrT3ZmzQf3b7As-20" style="edgeStyle=orthogonalEdgeStyle;rounded=0;orthogonalLoop=1;jettySize=auto;html=1;" edge="1" parent="77e6c97f196da883-3" source="77e6c97f196da883-11" target="77e6c97f196da883-16">
          <mxGeometry relative="1" as="geometry" />
        </mxCell>
        <mxCell id="77e6c97f196da883-11" value="消息中心" style="rounded=1;whiteSpace=wrap;html=1;shadow=0;labelBackgroundColor=none;strokeWidth=1;fontFamily=Verdana;fontSize=8;align=center;" parent="77e6c97f196da883-3" vertex="1">
          <mxGeometry x="62" y="70" width="100" height="60" as="geometry" />
        </mxCell>
        <mxCell id="cL0mIKkrT3ZmzQf3b7As-22" value="是" style="edgeStyle=orthogonalEdgeStyle;rounded=0;orthogonalLoop=1;jettySize=auto;html=1;" edge="1" parent="77e6c97f196da883-3" source="77e6c97f196da883-16" target="cL0mIKkrT3ZmzQf3b7As-21">
          <mxGeometry relative="1" as="geometry" />
        </mxCell>
        <mxCell id="77e6c97f196da883-16" value="鉴权" style="rhombus;whiteSpace=wrap;html=1;rounded=0;shadow=0;labelBackgroundColor=none;strokeWidth=1;fontFamily=Verdana;fontSize=8;align=center;" parent="77e6c97f196da883-3" vertex="1">
          <mxGeometry x="72" y="170" width="80" height="60" as="geometry" />
        </mxCell>
        <mxCell id="cL0mIKkrT3ZmzQf3b7As-72" style="edgeStyle=orthogonalEdgeStyle;rounded=0;orthogonalLoop=1;jettySize=auto;html=1;" edge="1" parent="77e6c97f196da883-3" source="cL0mIKkrT3ZmzQf3b7As-21" target="cL0mIKkrT3ZmzQf3b7As-71">
          <mxGeometry relative="1" as="geometry" />
        </mxCell>
        <mxCell id="cL0mIKkrT3ZmzQf3b7As-94" style="edgeStyle=orthogonalEdgeStyle;rounded=0;orthogonalLoop=1;jettySize=auto;html=1;entryX=0;entryY=0.5;entryDx=0;entryDy=0;" edge="1" parent="77e6c97f196da883-3" source="cL0mIKkrT3ZmzQf3b7As-21" target="cL0mIKkrT3ZmzQf3b7As-93">
          <mxGeometry relative="1" as="geometry">
            <Array as="points">
              <mxPoint x="30" y="330" />
              <mxPoint x="30" y="680" />
            </Array>
          </mxGeometry>
        </mxCell>
        <mxCell id="cL0mIKkrT3ZmzQf3b7As-95" value="保存记录" style="edgeLabel;html=1;align=center;verticalAlign=middle;resizable=0;points=[];" vertex="1" connectable="0" parent="cL0mIKkrT3ZmzQf3b7As-94">
          <mxGeometry x="-0.2464" y="2" relative="1" as="geometry">
            <mxPoint as="offset" />
          </mxGeometry>
        </mxCell>
        <mxCell id="cL0mIKkrT3ZmzQf3b7As-21" value="发送消息" style="rounded=1;whiteSpace=wrap;html=1;shadow=0;labelBackgroundColor=none;strokeWidth=1;fontFamily=Verdana;fontSize=8;align=center;" vertex="1" parent="77e6c97f196da883-3">
          <mxGeometry x="62" y="300" width="100" height="60" as="geometry" />
        </mxCell>
        <mxCell id="cL0mIKkrT3ZmzQf3b7As-71" value="发送方式" style="rhombus;whiteSpace=wrap;html=1;rounded=0;shadow=0;labelBackgroundColor=none;strokeWidth=1;fontFamily=Verdana;fontSize=8;align=center;" vertex="1" parent="77e6c97f196da883-3">
          <mxGeometry x="72" y="410" width="80" height="60" as="geometry" />
        </mxCell>
        <mxCell id="cL0mIKkrT3ZmzQf3b7As-93" value="消息记录" style="rounded=1;whiteSpace=wrap;html=1;shadow=0;labelBackgroundColor=none;strokeWidth=1;fontFamily=Verdana;fontSize=8;align=center;" vertex="1" parent="77e6c97f196da883-3">
          <mxGeometry x="62" y="650" width="100" height="60" as="geometry" />
        </mxCell>
        <mxCell id="cL0mIKkrT3ZmzQf3b7As-107" value="回调配置" style="rounded=1;whiteSpace=wrap;html=1;shadow=0;labelBackgroundColor=none;strokeWidth=1;fontFamily=Verdana;fontSize=8;align=center;" vertex="1" parent="77e6c97f196da883-3">
          <mxGeometry x="62" y="790" width="100" height="60" as="geometry" />
        </mxCell>
        <mxCell id="77e6c97f196da883-4" value="IAM&amp;amp;主数据" style="swimlane;html=1;startSize=20;" parent="77e6c97f196da883-1" vertex="1">
          <mxGeometry x="350" y="20" width="190" height="930" as="geometry" />
        </mxCell>
        <mxCell id="cL0mIKkrT3ZmzQf3b7As-62" value="消息通道" style="swimlane;horizontal=0;" vertex="1" parent="77e6c97f196da883-4">
          <mxGeometry x="236" y="63" width="190" height="580" as="geometry">
            <mxRectangle x="30" y="110" width="30" height="70" as="alternateBounds" />
          </mxGeometry>
        </mxCell>
        <mxCell id="77e6c97f196da883-12" value="邮件" style="rounded=1;whiteSpace=wrap;html=1;shadow=0;labelBackgroundColor=none;strokeWidth=1;fontFamily=Verdana;fontSize=8;align=center;" parent="cL0mIKkrT3ZmzQf3b7As-62" vertex="1">
          <mxGeometry x="55" y="24" width="100" height="60" as="geometry" />
        </mxCell>
        <mxCell id="cL0mIKkrT3ZmzQf3b7As-1" value="短信" style="rounded=1;whiteSpace=wrap;html=1;shadow=0;labelBackgroundColor=none;strokeWidth=1;fontFamily=Verdana;fontSize=8;align=center;" vertex="1" parent="cL0mIKkrT3ZmzQf3b7As-62">
          <mxGeometry x="55" y="127" width="100" height="60" as="geometry" />
        </mxCell>
        <mxCell id="cL0mIKkrT3ZmzQf3b7As-2" value="钉钉" style="rounded=1;whiteSpace=wrap;html=1;shadow=0;labelBackgroundColor=none;strokeWidth=1;fontFamily=Verdana;fontSize=8;align=center;" vertex="1" parent="cL0mIKkrT3ZmzQf3b7As-62">
          <mxGeometry x="55" y="234" width="100" height="60" as="geometry" />
        </mxCell>
        <mxCell id="cL0mIKkrT3ZmzQf3b7As-3" value="App" style="rounded=1;whiteSpace=wrap;html=1;shadow=0;labelBackgroundColor=none;strokeWidth=1;fontFamily=Verdana;fontSize=8;align=center;" vertex="1" parent="cL0mIKkrT3ZmzQf3b7As-62">
          <mxGeometry x="55" y="349" width="100" height="60" as="geometry" />
        </mxCell>
        <mxCell id="cL0mIKkrT3ZmzQf3b7As-5" value="web" style="rounded=1;whiteSpace=wrap;html=1;shadow=0;labelBackgroundColor=none;strokeWidth=1;fontFamily=Verdana;fontSize=8;align=center;" vertex="1" parent="cL0mIKkrT3ZmzQf3b7As-62">
          <mxGeometry x="55" y="465" width="100" height="60" as="geometry" />
        </mxCell>
        <mxCell id="cL0mIKkrT3ZmzQf3b7As-80" value="人员&amp;amp;设备信息" style="rounded=1;whiteSpace=wrap;html=1;shadow=0;labelBackgroundColor=none;strokeWidth=1;fontFamily=Verdana;fontSize=8;align=center;" vertex="1" parent="77e6c97f196da883-4">
          <mxGeometry x="60" y="300" width="100" height="60" as="geometry" />
        </mxCell>
        <mxCell id="cL0mIKkrT3ZmzQf3b7As-83" value="获取授权信息" style="rounded=1;whiteSpace=wrap;html=1;shadow=0;labelBackgroundColor=none;strokeWidth=1;fontFamily=Verdana;fontSize=8;align=center;" vertex="1" parent="77e6c97f196da883-4">
          <mxGeometry x="60" y="170" width="100" height="60" as="geometry" />
        </mxCell>
        <mxCell id="77e6c97f196da883-5" value="通道" style="swimlane;html=1;startSize=20;" parent="77e6c97f196da883-1" vertex="1">
          <mxGeometry x="540" y="20" width="290" height="930" as="geometry" />
        </mxCell>
        <mxCell id="77e6c97f196da883-6" value="App Push&amp;nbsp;" style="swimlane;html=1;startSize=20;" parent="77e6c97f196da883-1" vertex="1">
          <mxGeometry x="830" y="20" width="170" height="930" as="geometry" />
        </mxCell>
        <mxCell id="cL0mIKkrT3ZmzQf3b7As-13" value="Android" style="rounded=1;whiteSpace=wrap;html=1;shadow=0;labelBackgroundColor=none;strokeWidth=1;fontFamily=Verdana;fontSize=8;align=center;" vertex="1" parent="77e6c97f196da883-6">
          <mxGeometry x="212" y="305" width="100" height="60" as="geometry" />
        </mxCell>
        <mxCell id="cL0mIKkrT3ZmzQf3b7As-14" value="IOS" style="rounded=1;whiteSpace=wrap;html=1;shadow=0;labelBackgroundColor=none;strokeWidth=1;fontFamily=Verdana;fontSize=8;align=center;" vertex="1" parent="77e6c97f196da883-6">
          <mxGeometry x="212" y="520" width="100" height="60" as="geometry" />
        </mxCell>
        <mxCell id="cL0mIKkrT3ZmzQf3b7As-4" value="推送SDK" style="rounded=1;whiteSpace=wrap;html=1;shadow=0;labelBackgroundColor=none;strokeWidth=1;fontFamily=Verdana;fontSize=8;align=center;" vertex="1" parent="77e6c97f196da883-6">
          <mxGeometry x="20" y="412" width="100" height="60" as="geometry" />
        </mxCell>
        <mxCell id="cL0mIKkrT3ZmzQf3b7As-66" style="edgeStyle=orthogonalEdgeStyle;rounded=0;orthogonalLoop=1;jettySize=auto;html=1;entryX=0;entryY=0.5;entryDx=0;entryDy=0;" edge="1" parent="77e6c97f196da883-6" source="cL0mIKkrT3ZmzQf3b7As-4" target="cL0mIKkrT3ZmzQf3b7As-13">
          <mxGeometry relative="1" as="geometry">
            <mxPoint x="180" y="335" as="targetPoint" />
            <Array as="points">
              <mxPoint x="119" y="335" />
            </Array>
          </mxGeometry>
        </mxCell>
        <mxCell id="cL0mIKkrT3ZmzQf3b7As-79" style="edgeStyle=orthogonalEdgeStyle;rounded=0;orthogonalLoop=1;jettySize=auto;html=1;entryX=0;entryY=0.5;entryDx=0;entryDy=0;" edge="1" parent="77e6c97f196da883-6" source="cL0mIKkrT3ZmzQf3b7As-4" target="cL0mIKkrT3ZmzQf3b7As-14">
          <mxGeometry relative="1" as="geometry">
            <mxPoint x="180" y="550" as="targetPoint" />
            <Array as="points">
              <mxPoint x="119" y="550" />
            </Array>
          </mxGeometry>
        </mxCell>
        <mxCell id="77e6c97f196da883-7" value="移动端" style="swimlane;html=1;startSize=20;" parent="77e6c97f196da883-1" vertex="1">
          <mxGeometry x="1000" y="20" width="160" height="930" as="geometry" />
        </mxCell>
        <mxCell id="cL0mIKkrT3ZmzQf3b7As-87" value="其他智能设备" style="rounded=1;whiteSpace=wrap;html=1;shadow=0;labelBackgroundColor=none;strokeWidth=1;fontFamily=Verdana;fontSize=8;align=center;" vertex="1" parent="77e6c97f196da883-7">
          <mxGeometry x="40" y="412" width="100" height="60" as="geometry" />
        </mxCell>
        <mxCell id="cL0mIKkrT3ZmzQf3b7As-65" style="edgeStyle=orthogonalEdgeStyle;rounded=0;orthogonalLoop=1;jettySize=auto;html=1;" edge="1" parent="77e6c97f196da883-1" source="cL0mIKkrT3ZmzQf3b7As-3" target="cL0mIKkrT3ZmzQf3b7As-4">
          <mxGeometry relative="1" as="geometry" />
        </mxCell>
        <mxCell id="cL0mIKkrT3ZmzQf3b7As-75" style="edgeStyle=orthogonalEdgeStyle;rounded=0;orthogonalLoop=1;jettySize=auto;html=1;exitX=0.5;exitY=1;exitDx=0;exitDy=0;" edge="1" parent="77e6c97f196da883-1" source="cL0mIKkrT3ZmzQf3b7As-71">
          <mxGeometry relative="1" as="geometry">
            <mxPoint x="590" y="573" as="targetPoint" />
            <Array as="points">
              <mxPoint x="252" y="573" />
            </Array>
          </mxGeometry>
        </mxCell>
        <mxCell id="cL0mIKkrT3ZmzQf3b7As-76" value="模板消息" style="edgeLabel;html=1;align=center;verticalAlign=middle;resizable=0;points=[];" vertex="1" connectable="0" parent="cL0mIKkrT3ZmzQf3b7As-75">
          <mxGeometry x="0.0485" y="2" relative="1" as="geometry">
            <mxPoint as="offset" />
          </mxGeometry>
        </mxCell>
        <mxCell id="cL0mIKkrT3ZmzQf3b7As-77" style="edgeStyle=orthogonalEdgeStyle;rounded=0;orthogonalLoop=1;jettySize=auto;html=1;" edge="1" parent="77e6c97f196da883-1" source="cL0mIKkrT3ZmzQf3b7As-71">
          <mxGeometry relative="1" as="geometry">
            <mxPoint x="590" y="641" as="targetPoint" />
            <Array as="points">
              <mxPoint x="212" y="460" />
              <mxPoint x="212" y="641" />
            </Array>
          </mxGeometry>
        </mxCell>
        <mxCell id="cL0mIKkrT3ZmzQf3b7As-78" value="定时消息" style="edgeLabel;html=1;align=center;verticalAlign=middle;resizable=0;points=[];" vertex="1" connectable="0" parent="cL0mIKkrT3ZmzQf3b7As-77">
          <mxGeometry x="0.4066" y="1" relative="1" as="geometry">
            <mxPoint as="offset" />
          </mxGeometry>
        </mxCell>
        <mxCell id="cL0mIKkrT3ZmzQf3b7As-81" style="edgeStyle=orthogonalEdgeStyle;rounded=0;orthogonalLoop=1;jettySize=auto;html=1;entryX=0;entryY=0.5;entryDx=0;entryDy=0;" edge="1" parent="77e6c97f196da883-1" source="cL0mIKkrT3ZmzQf3b7As-21" target="cL0mIKkrT3ZmzQf3b7As-80">
          <mxGeometry relative="1" as="geometry" />
        </mxCell>
        <mxCell id="cL0mIKkrT3ZmzQf3b7As-82" value="获取接收方" style="edgeLabel;html=1;align=center;verticalAlign=middle;resizable=0;points=[];" vertex="1" connectable="0" parent="cL0mIKkrT3ZmzQf3b7As-81">
          <mxGeometry x="-0.0222" y="-2" relative="1" as="geometry">
            <mxPoint as="offset" />
          </mxGeometry>
        </mxCell>
        <mxCell id="cL0mIKkrT3ZmzQf3b7As-73" style="edgeStyle=orthogonalEdgeStyle;rounded=0;orthogonalLoop=1;jettySize=auto;html=1;" edge="1" parent="77e6c97f196da883-1" source="cL0mIKkrT3ZmzQf3b7As-71">
          <mxGeometry relative="1" as="geometry">
            <mxPoint x="590" y="460" as="targetPoint" />
          </mxGeometry>
        </mxCell>
        <mxCell id="cL0mIKkrT3ZmzQf3b7As-74" value="普通消息" style="edgeLabel;html=1;align=center;verticalAlign=middle;resizable=0;points=[];" vertex="1" connectable="0" parent="cL0mIKkrT3ZmzQf3b7As-73">
          <mxGeometry x="0.15" relative="1" as="geometry">
            <mxPoint as="offset" />
          </mxGeometry>
        </mxCell>
        <mxCell id="cL0mIKkrT3ZmzQf3b7As-85" style="edgeStyle=orthogonalEdgeStyle;rounded=0;orthogonalLoop=1;jettySize=auto;html=1;exitX=1;exitY=0.5;exitDx=0;exitDy=0;" edge="1" parent="77e6c97f196da883-1" source="77e6c97f196da883-16">
          <mxGeometry relative="1" as="geometry">
            <mxPoint x="410" y="220" as="targetPoint" />
          </mxGeometry>
        </mxCell>
        <mxCell id="cL0mIKkrT3ZmzQf3b7As-86" value="获取权限" style="edgeLabel;html=1;align=center;verticalAlign=middle;resizable=0;points=[];" vertex="1" connectable="0" parent="cL0mIKkrT3ZmzQf3b7As-85">
          <mxGeometry x="-0.3" relative="1" as="geometry">
            <mxPoint as="offset" />
          </mxGeometry>
        </mxCell>
        <mxCell id="cL0mIKkrT3ZmzQf3b7As-88" style="edgeStyle=orthogonalEdgeStyle;rounded=0;orthogonalLoop=1;jettySize=auto;html=1;entryX=0;entryY=0.5;entryDx=0;entryDy=0;" edge="1" parent="77e6c97f196da883-1" source="cL0mIKkrT3ZmzQf3b7As-4" target="cL0mIKkrT3ZmzQf3b7As-87">
          <mxGeometry relative="1" as="geometry" />
        </mxCell>
        <mxCell id="cL0mIKkrT3ZmzQf3b7As-92" style="edgeStyle=orthogonalEdgeStyle;rounded=0;orthogonalLoop=1;jettySize=auto;html=1;entryX=0;entryY=0.5;entryDx=0;entryDy=0;" edge="1" parent="77e6c97f196da883-1" source="77e6c97f196da883-8" target="77e6c97f196da883-11">
          <mxGeometry relative="1" as="geometry" />
        </mxCell>
        <mxCell id="cL0mIKkrT3ZmzQf3b7As-89" style="edgeStyle=orthogonalEdgeStyle;rounded=0;orthogonalLoop=1;jettySize=auto;html=1;entryX=0.5;entryY=1;entryDx=0;entryDy=0;" edge="1" parent="77e6c97f196da883-1" source="77e6c97f196da883-16" target="77e6c97f196da883-8">
          <mxGeometry relative="1" as="geometry">
            <mxPoint x="80" y="160" as="targetPoint" />
          </mxGeometry>
        </mxCell>
        <mxCell id="cL0mIKkrT3ZmzQf3b7As-91" value="否" style="edgeLabel;html=1;align=center;verticalAlign=middle;resizable=0;points=[];" vertex="1" connectable="0" parent="cL0mIKkrT3ZmzQf3b7As-89">
          <mxGeometry x="-0.5625" y="-2" relative="1" as="geometry">
            <mxPoint as="offset" />
          </mxGeometry>
        </mxCell>
        <mxCell id="cL0mIKkrT3ZmzQf3b7As-108" style="edgeStyle=orthogonalEdgeStyle;rounded=0;orthogonalLoop=1;jettySize=auto;html=1;entryX=1;entryY=0.5;entryDx=0;entryDy=0;" edge="1" parent="77e6c97f196da883-1" source="cL0mIKkrT3ZmzQf3b7As-62" target="cL0mIKkrT3ZmzQf3b7As-107">
          <mxGeometry relative="1" as="geometry">
            <Array as="points">
              <mxPoint x="690" y="840" />
            </Array>
          </mxGeometry>
        </mxCell>
        <mxCell id="cL0mIKkrT3ZmzQf3b7As-109" value="定时或者异步发送成功" style="edgeLabel;html=1;align=center;verticalAlign=middle;resizable=0;points=[];" vertex="1" connectable="0" parent="cL0mIKkrT3ZmzQf3b7As-108">
          <mxGeometry x="0.2354" y="-4" relative="1" as="geometry">
            <mxPoint as="offset" />
          </mxGeometry>
        </mxCell>
        <mxCell id="cL0mIKkrT3ZmzQf3b7As-110" style="edgeStyle=orthogonalEdgeStyle;rounded=0;orthogonalLoop=1;jettySize=auto;html=1;entryX=0.18;entryY=1.017;entryDx=0;entryDy=0;entryPerimeter=0;" edge="1" parent="77e6c97f196da883-1" source="cL0mIKkrT3ZmzQf3b7As-107" target="77e6c97f196da883-8">
          <mxGeometry relative="1" as="geometry">
            <mxPoint x="50" y="170" as="targetPoint" />
          </mxGeometry>
        </mxCell>
        <mxCell id="cL0mIKkrT3ZmzQf3b7As-111" value="调用回执接口或者MQ通知" style="edgeLabel;html=1;align=center;verticalAlign=middle;resizable=0;points=[];" vertex="1" connectable="0" parent="cL0mIKkrT3ZmzQf3b7As-110">
          <mxGeometry x="0.0415" relative="1" as="geometry">
            <mxPoint as="offset" />
          </mxGeometry>
        </mxCell>
      </root>
    </mxGraphModel>
  </diagram>
</mxfile>
